# Made in Blockbench 5.1.6
mtllib player.mtl

o cylinder
v 0 0 0
v 0 2 0
v 0.12323893151598876 0 0.5
v 0.12323893151598876 2 0.5
v 0.3414842405277798 0 0.3854560256532099
v 0.3414842405277798 2 0.3854560256532099
v 0.48149962536587665 0 0.1826087210779459
v 0.48149962536587665 2 0.1826087210779459
v 0.5112092487321774 0 -0.06207204082262277
v 0.5112092487321774 2 -0.06207204082262277
v 0.4238069939532375 0 -0.29253284621991277
v 0.4238069939532375 2 -0.29253284621991277
v 0.23931566428755785 0 -0.4559779019511883
v 0.23931566428755785 2 -0.4559779019511883
v 6.306489107626801e-17 0 -0.5149639154748638
v 6.306489107626801e-17 2 -0.5149639154748638
v -0.23931566428755754 0 -0.4559779019511885
v -0.23931566428755754 2 -0.4559779019511885
v -0.42380699395323745 0 -0.2925328462199129
v -0.42380699395323745 2 -0.2925328462199129
v -0.5112092487321774 0 -0.06207204082262313
v -0.5112092487321774 2 -0.06207204082262313
v -0.48149962536587665 0 0.1826087210779459
v -0.48149962536587665 2 0.1826087210779459
v -0.34148424052778 0 0.38545602565320974
v -0.34148424052778 2 0.38545602565320974
v -0.12323893151598878 0 0.5
v -0.12323893151598878 2 0.5
vt 0.24971640625000002 0.72192734375
vt 0.2224359375 0.7362453125
vt 0.20703125 0.6737453125
vt 0.0622796875 0.75
vt 0.0930890625 0.75
vt 0.0930890625 1
vt 0.0622796875 1
vt 0.0818109375 0.6153171875
vt 0.10909140625000001 0.62963515625
vt 0.06640625 0.6778171875
vt 0.26721875 0.69657109375
vt 0.24971640625000002 0.72192734375
vt 0.20703125 0.6737453125
vt 0.204446875 0.75
vt 0.23525625 0.75
vt 0.23525625 1
vt 0.204446875 1
vt 0.10909140625000001 0.62963515625
vt 0.12659375 0.65499140625
vt 0.06640625 0.6778171875
vt 0.27093203125 0.6659859375
vt 0.26721875 0.69657109375
vt 0.20703125 0.6737453125
vt 0.23525625 0.75
vt 0.266065625 0.75
vt 0.266065625 1
vt 0.23525625 1
vt 0.12659375 0.65499140625
vt 0.13030703124999998 0.6855765625
vt 0.06640625 0.6778171875
vt 0.26000703125 0.63717890625
vt 0.27093203125 0.6659859375
vt 0.20703125 0.6737453124999999
vt 0.266065625 0.75
vt 0.296875 0.75
vt 0.296875 1
vt 0.266065625 1
vt 0.13030703124999998 0.6855765625
vt 0.11938203125 0.71438359375
vt 0.06640625 0.6778171875
vt 0.23694609375000003 0.6167484375
vt 0.26000703125 0.63717890625
vt 0.20703125 0.6737453124999999
vt 0.3046875 0.75
vt 0.335496875 0.75
vt 0.335496875 1
vt 0.3046875 1
vt 0.11938203125 0.71438359375
vt 0.09632109375000002 0.7348140624999999
vt 0.06640624999999999 0.6778171875
vt 0.20703125 0.609375
vt 0.23694609375000003 0.6167484375
vt 0.20703125 0.6737453125
vt 0.335496875 0.75
vt 0.36630625 0.75
vt 0.36630625 1
vt 0.335496875 1
vt 0.09632109375000002 0.7348140624999999
vt 0.06640625000000001 0.7421875
vt 0.06640624999999999 0.6778171875
vt 0.17711640625000002 0.6167484375
vt 0.20703125 0.609375
vt 0.20703125 0.6737453125
vt 0.28213125 0.4921875
vt 0.312940625 0.4921875
vt 0.312940625 0.7421875
vt 0.28213125 0.7421875
vt 0.06640625000000001 0.7421875
vt 0.03649140625000002 0.7348140625
vt 0.06640624999999999 0.6778171875
vt 0.15405546874999998 0.63717890625
vt 0.17711640625 0.6167484375
vt 0.20703125 0.6737453124999999
vt 0.312940625 0.4921875
vt 0.34375 0.4921875
vt 0.34375 0.7421875
vt 0.312940625 0.7421875
vt 0.03649140624999998 0.7348140624999999
vt 0.013430468749999994 0.71438359375
vt 0.06640625000000001 0.6778171875
vt 0.14313046875000002 0.6659859375
vt 0.15405546874999998 0.63717890625
vt 0.20703125 0.6737453124999999
vt 0.1015625 0.75
vt 0.132371875 0.75
vt 0.132371875 1
vt 0.1015625 1
vt 0.013430468749999994 0.71438359375
vt 0.0025054687500000034 0.6855765625
vt 0.06640625 0.6778171875
vt 0.14684375 0.69657109375
vt 0.14313046875000002 0.6659859375
vt 0.20703125 0.6737453125
vt 0.132371875 0.75
vt 0.16318125 0.75
vt 0.16318125 1
vt 0.132371875 1
vt 0.0025054687500000034 0.6855765625
vt 0.006218750000000002 0.65499140625
vt 0.06640625 0.6778171875
vt 0.16434609375 0.72192734375
vt 0.14684375 0.69657109375
vt 0.20703125 0.6737453125
vt 0.16318125 0.75
vt 0.193990625 0.75
vt 0.193990625 1
vt 0.16318125 1
vt 0.006218750000000002 0.65499140625
vt 0.023721093749999998 0.62963515625
vt 0.06640625 0.6778171875
vt 0.1916265625 0.7362453125
vt 0.16434609375 0.72192734375
vt 0.20703125 0.6737453125
vt 0.0006609375000000001 0.75
vt 0.0314703125 0.75
vt 0.0314703125 1
vt 0.0006609375000000001 1
vt 0.023721093749999998 0.62963515625
vt 0.0510015625 0.6153171875
vt 0.06640625 0.6778171875
vt 0.2224359375 0.7362453125
vt 0.1916265625 0.7362453125
vt 0.20703125 0.6737453125
vt 0.0314703125 0.75
vt 0.0622796875 0.75
vt 0.0622796875 1
vt 0.0314703125 1
vt 0.0510015625 0.6153171875
vt 0.0818109375 0.6153171875
vt 0.06640625 0.6778171875
vn 0 -1 0
vn 0.46472317204376845 0 0.88545602565321
vn 0 1 0
vn 0 -1 0
vn 0.8229838658936565 0 0.5680647467311558
vn 0 1 0
vn 0 -1 0
vn 0.9927088740980541 0 0.12053668025532312
vn 0 1 0
vn 0 -1 0
vn 0.935016242685415 0 -0.35460488704253545
vn 0 1 0
vn 0 -1 0
vn 0.6631226582407952 0 -0.7485107481711011
vn 0 1 0
vn 0 -1 0
vn 0.239315664287558 0 -0.970941817426052
vn 0 1 0
vn 0 -1 0
vn -0.23931566428755754 0 -0.9709418174260521
vn 0 1 0
vn 0 -1 0
vn -0.6631226582407949 0 -0.7485107481711014
vn 0 1 0
vn 0 -1 0
vn -0.9350162426854147 0 -0.35460488704253595
vn 0 1 0
vn 0 -1 0
vn -0.9927088740980541 0 0.12053668025532294
vn 0 1 0
vn 0 -1 0
vn -0.8229838658936565 0 0.5680647467311557
vn 0 1 0
vn 0 -1 0
vn -0.4647231720437688 0 0.8854560256532098
vn 0 1 0
vn 0 -1 0
vn 0 0 1
vn 0 1 0
usemtl m_8ea1eb18-be6c-fe65-f41c-561ed4255431
f 5/1/1 3/2/1 1/3/1
f 3/4/2 5/5/2 6/6/2 4/7/2
f 4/8/3 6/9/3 2/10/3
f 7/11/4 5/12/4 1/13/4
f 5/14/5 7/15/5 8/16/5 6/17/5
f 6/18/6 8/19/6 2/20/6
f 9/21/7 7/22/7 1/23/7
f 7/24/8 9/25/8 10/26/8 8/27/8
f 8/28/9 10/29/9 2/30/9
f 11/31/10 9/32/10 1/33/10
f 9/34/11 11/35/11 12/36/11 10/37/11
f 10/38/12 12/39/12 2/40/12
f 13/41/13 11/42/13 1/43/13
f 11/44/14 13/45/14 14/46/14 12/47/14
f 12/48/15 14/49/15 2/50/15
f 15/51/16 13/52/16 1/53/16
f 13/54/17 15/55/17 16/56/17 14/57/17
f 14/58/18 16/59/18 2/60/18
f 17/61/19 15/62/19 1/63/19
f 15/64/20 17/65/20 18/66/20 16/67/20
f 16/68/21 18/69/21 2/70/21
f 19/71/22 17/72/22 1/73/22
f 17/74/23 19/75/23 20/76/23 18/77/23
f 18/78/24 20/79/24 2/80/24
f 21/81/25 19/82/25 1/83/25
f 19/84/26 21/85/26 22/86/26 20/87/26
f 20/88/27 22/89/27 2/90/27
f 23/91/28 21/92/28 1/93/28
f 21/94/29 23/95/29 24/96/29 22/97/29
f 22/98/30 24/99/30 2/100/30
f 25/101/31 23/102/31 1/103/31
f 23/104/32 25/105/32 26/106/32 24/107/32
f 24/108/33 26/109/33 2/110/33
f 27/111/34 25/112/34 1/113/34
f 25/114/35 27/115/35 28/116/35 26/117/35
f 26/118/36 28/119/36 2/120/36
f 3/121/37 27/122/37 1/123/37
f 27/124/38 3/125/38 4/126/38 28/127/38
f 28/128/39 4/129/39 2/130/39