# Made in Blockbench 5.1.6
mtllib objtest.mtl

o sphere
v 0 0 0
v 0 1 0
v 0.02447174185242321 0.9755282581475768 0.1545084971874737
v 0.04654801910767986 0.9045084971874737 0.29389262614623657
v 0.06406785193355728 0.7938926261462366 0.4045084971874737
v 0.07531627702520555 0.6545084971874737 0.4755282581475767
v 0.07919222016226814 0.5 0.5
v 0.07531627702520556 0.34549150281252633 0.47552825814757677
v 0.06406785193355728 0.2061073738537635 0.4045084971874737
v 0.04654801910767987 0.09549150281252633 0.2938926261462366
v 0.024471741852423217 0.024471741852423234 0.15450849718747375
v 0.07101976096010305 0.9755282581475768 0.13938412895876284
v 0.13508761289366034 0.9045084971874737 0.2651243682287109
v 0.1859321480664427 0.7938926261462366 0.36491238710633966
v 0.21857634912103094 0.6545084971874737 0.42898023903989685
v 0.22982477421267924 0.5 0.45105651629515353
v 0.21857634912103097 0.34549150281252633 0.4289802390398969
v 0.1859321480664427 0.2061073738537635 0.36491238710633966
v 0.13508761289366036 0.09549150281252633 0.2651243682287109
v 0.07101976096010308 0.024471741852423234 0.13938412895876287
v 0.11061587104123712 0.9755282581475768 0.11061587104123713
v 0.2104038899188659 0.9045084971874737 0.21040388991886594
v 0.28959611008113406 0.7938926261462366 0.2895961100811341
v 0.3404406452539163 0.6545084971874737 0.3404406452539164
v 0.3579604780797938 0.5 0.35796047807979386
v 0.3404406452539164 0.34549150281252633 0.34044064525391643
v 0.28959611008113406 0.2061073738537635 0.2895961100811341
v 0.21040388991886594 0.09549150281252633 0.21040388991886597
v 0.11061587104123716 0.024471741852423234 0.11061587104123717
v 0.13938412895876282 0.9755282581475768 0.07101976096010307
v 0.2651243682287108 0.9045084971874737 0.13508761289366036
v 0.3649123871063396 0.7938926261462366 0.18593214806644273
v 0.4289802390398968 0.6545084971874737 0.21857634912103097
v 0.4510565162951535 0.5 0.22982477421267927
v 0.42898023903989685 0.34549150281252633 0.218576349121031
v 0.3649123871063396 0.2061073738537635 0.18593214806644273
v 0.2651243682287109 0.09549150281252633 0.1350876128936604
v 0.13938412895876287 0.024471741852423234 0.0710197609601031
v 0.1545084971874737 0.9755282581475768 0.024471741852423217
v 0.29389262614623657 0.9045084971874737 0.046548019107679875
v 0.4045084971874737 0.7938926261462366 0.06406785193355731
v 0.4755282581475767 0.6545084971874737 0.07531627702520557
v 0.5 0.5 0.07919222016226816
v 0.47552825814757677 0.34549150281252633 0.07531627702520559
v 0.4045084971874737 0.2061073738537635 0.06406785193355731
v 0.2938926261462366 0.09549150281252633 0.04654801910767988
v 0.15450849718747375 0.024471741852423234 0.024471741852423227
v 0.15450849718747367 0.9755282581475768 -0.024471741852423234
v 0.2938926261462365 0.9045084971874737 -0.04654801910767991
v 0.40450849718747367 0.7938926261462366 -0.06406785193355735
v 0.47552825814757665 0.6545084971874737 -0.07531627702520563
v 0.49999999999999994 0.5 -0.07919222016226822
v 0.4755282581475767 0.34549150281252633 -0.07531627702520564
v 0.40450849718747367 0.2061073738537635 -0.06406785193355735
v 0.29389262614623657 0.09549150281252633 -0.04654801910767992
v 0.15450849718747373 0.024471741852423234 -0.024471741852423245
v 0.13938412895876284 0.9755282581475768 -0.07101976096010304
v 0.2651243682287109 0.9045084971874737 -0.13508761289366034
v 0.36491238710633966 0.7938926261462366 -0.18593214806644268
v 0.42898023903989685 0.6545084971874737 -0.2185763491210309
v 0.45105651629515353 0.5 -0.22982477421267922
v 0.4289802390398969 0.34549150281252633 -0.21857634912103094
v 0.36491238710633966 0.2061073738537635 -0.18593214806644268
v 0.2651243682287109 0.09549150281252633 -0.13508761289366036
v 0.13938412895876287 0.024471741852423234 -0.07101976096010307
v 0.11061587104123713 0.9755282581475768 -0.11061587104123712
v 0.21040388991886594 0.9045084971874737 -0.2104038899188659
v 0.2895961100811341 0.7938926261462366 -0.28959611008113406
v 0.3404406452539164 0.6545084971874737 -0.3404406452539163
v 0.35796047807979386 0.5 -0.3579604780797938
v 0.34044064525391643 0.34549150281252633 -0.3404406452539164
v 0.2895961100811341 0.2061073738537635 -0.28959611008113406
v 0.21040388991886597 0.09549150281252633 -0.21040388991886594
v 0.11061587104123717 0.024471741852423234 -0.11061587104123716
v 0.07101976096010307 0.9755282581475768 -0.13938412895876282
v 0.13508761289366036 0.9045084971874737 -0.2651243682287108
v 0.18593214806644273 0.7938926261462366 -0.3649123871063396
v 0.218576349121031 0.6545084971874737 -0.4289802390398968
v 0.2298247742126793 0.5 -0.4510565162951535
v 0.21857634912103102 0.34549150281252633 -0.42898023903989685
v 0.18593214806644273 0.2061073738537635 -0.3649123871063396
v 0.1350876128936604 0.09549150281252633 -0.2651243682287109
v 0.0710197609601031 0.024471741852423234 -0.13938412895876287
v 0.024471741852423227 0.9755282581475768 -0.15450849718747367
v 0.04654801910767989 0.9045084971874737 -0.2938926261462365
v 0.06406785193355734 0.7938926261462366 -0.40450849718747367
v 0.0753162770252056 0.6545084971874737 -0.47552825814757665
v 0.07919222016226819 0.5 -0.49999999999999994
v 0.07531627702520562 0.34549150281252633 -0.4755282581475767
v 0.06406785193355734 0.2061073738537635 -0.40450849718747367
v 0.0465480191076799 0.09549150281252633 -0.29389262614623657
v 0.024471741852423234 0.024471741852423234 -0.15450849718747373
v -0.02447174185242319 0.9755282581475768 -0.1545084971874737
v -0.04654801910767982 0.9045084971874737 -0.29389262614623657
v -0.06406785193355723 0.7938926261462366 -0.4045084971874737
v -0.07531627702520549 0.6545084971874737 -0.4755282581475767
v -0.07919222016226807 0.5 -0.5
v -0.07531627702520549 0.34549150281252633 -0.47552825814757677
v -0.06406785193355723 0.2061073738537635 -0.4045084971874737
v -0.046548019107679826 0.09549150281252633 -0.2938926261462366
v -0.024471741852423196 0.024471741852423234 -0.15450849718747375
v -0.07101976096010297 0.9755282581475768 -0.13938412895876287
v -0.1350876128936602 0.9045084971874737 -0.26512436822871094
v -0.18593214806644248 0.7938926261462366 -0.3649123871063398
v -0.2185763491210307 0.6545084971874737 -0.42898023903989696
v -0.229824774212679 0.5 -0.45105651629515364
v -0.21857634912103072 0.34549150281252633 -0.428980239039897
v -0.18593214806644248 0.2061073738537635 -0.3649123871063398
v -0.13508761289366022 0.09549150281252633 -0.265124368228711
v -0.071019760960103 0.024471741852423234 -0.13938412895876293
v -0.11061587104123712 0.9755282581475768 -0.11061587104123716
v -0.2104038899188659 0.9045084971874737 -0.21040388991886597
v -0.28959611008113406 0.7938926261462366 -0.2895961100811341
v -0.3404406452539163 0.6545084971874737 -0.34044064525391643
v -0.3579604780797938 0.5 -0.3579604780797939
v -0.3404406452539164 0.34549150281252633 -0.3404406452539165
v -0.28959611008113406 0.2061073738537635 -0.2895961100811341
v -0.21040388991886594 0.09549150281252633 -0.210403889918866
v -0.11061587104123716 0.024471741852423234 -0.1106158710412372
v -0.13938412895876282 0.9755282581475768 -0.07101976096010308
v -0.2651243682287108 0.9045084971874737 -0.1350876128936604
v -0.3649123871063396 0.7938926261462366 -0.18593214806644276
v -0.4289802390398968 0.6545084971874737 -0.21857634912103102
v -0.4510565162951535 0.5 -0.22982477421267933
v -0.42898023903989685 0.34549150281252633 -0.21857634912103105
v -0.3649123871063396 0.2061073738537635 -0.18593214806644276
v -0.2651243682287109 0.09549150281252633 -0.13508761289366042
v -0.13938412895876287 0.024471741852423234 -0.07101976096010311
v -0.15450849718747367 0.9755282581475768 -0.024471741852423234
v -0.2938926261462365 0.9045084971874737 -0.04654801910767991
v -0.40450849718747367 0.7938926261462366 -0.06406785193355735
v -0.47552825814757665 0.6545084971874737 -0.07531627702520563
v -0.49999999999999994 0.5 -0.07919222016226822
v -0.4755282581475767 0.34549150281252633 -0.07531627702520564
v -0.40450849718747367 0.2061073738537635 -0.06406785193355735
v -0.29389262614623657 0.09549150281252633 -0.04654801910767992
v -0.15450849718747373 0.024471741852423234 -0.024471741852423245
v -0.1545084971874737 0.9755282581475768 0.02447174185242318
v -0.29389262614623657 0.9045084971874737 0.0465480191076798
v -0.4045084971874737 0.7938926261462366 0.06406785193355721
v -0.4755282581475767 0.6545084971874737 0.07531627702520546
v -0.5 0.5 0.07919222016226804
v -0.47552825814757677 0.34549150281252633 0.07531627702520546
v -0.4045084971874737 0.2061073738537635 0.06406785193355721
v -0.2938926261462366 0.09549150281252633 0.046548019107679806
v -0.15450849718747375 0.024471741852423234 0.02447174185242319
v -0.13938412895876284 0.9755282581475768 0.07101976096010304
v -0.2651243682287109 0.9045084971874737 0.1350876128936603
v -0.36491238710633966 0.7938926261462366 0.18593214806644265
v -0.42898023903989685 0.6545084971874737 0.21857634912103088
v -0.45105651629515353 0.5 0.2298247742126792
v -0.4289802390398969 0.34549150281252633 0.2185763491210309
v -0.36491238710633966 0.2061073738537635 0.18593214806644265
v -0.2651243682287109 0.09549150281252633 0.13508761289366034
v -0.13938412895876287 0.024471741852423234 0.07101976096010307
v -0.11061587104123716 0.9755282581475768 0.1106158710412371
v -0.21040388991886597 0.9045084971874737 0.21040388991886586
v -0.2895961100811341 0.7938926261462366 0.289596110081134
v -0.34044064525391643 0.6545084971874737 0.34044064525391626
v -0.3579604780797939 0.5 0.35796047807979375
v -0.3404406452539165 0.34549150281252633 0.3404406452539163
v -0.2895961100811341 0.2061073738537635 0.289596110081134
v -0.210403889918866 0.09549150281252633 0.2104038899188659
v -0.1106158710412372 0.024471741852423234 0.11061587104123714
v -0.0710197609601031 0.9755282581475768 0.13938412895876282
v -0.13508761289366042 0.9045084971874737 0.2651243682287108
v -0.1859321480664428 0.7938926261462366 0.3649123871063396
v -0.21857634912103105 0.6545084971874737 0.4289802390398968
v -0.22982477421267936 0.5 0.4510565162951535
v -0.21857634912103108 0.34549150281252633 0.42898023903989685
v -0.1859321480664428 0.2061073738537635 0.3649123871063396
v -0.13508761289366045 0.09549150281252633 0.2651243682287109
v -0.07101976096010311 0.024471741852423234 0.13938412895876287
v -0.02447174185242325 0.9755282581475768 0.15450849718747367
v -0.04654801910767993 0.9045084971874737 0.2938926261462365
v -0.0640678519335574 0.7938926261462366 0.40450849718747367
v -0.07531627702520567 0.6545084971874737 0.47552825814757665
v -0.07919222016226826 0.5 0.49999999999999994
v -0.07531627702520569 0.34549150281252633 0.4755282581475767
v -0.0640678519335574 0.2061073738537635 0.40450849718747367
v -0.04654801910767994 0.09549150281252633 0.29389262614623657
v -0.02447174185242326 0.024471741852423234 0.15450849718747373
vt 0.2637982528105972 0.7260319981434976
vt 0.2754482999787205 0.7297678156739892
vt 0.2576810653105972 0.7651413731434976
vt 0.2637982528105972 0.7260319981434976
vt 0.2693185653105972 0.6869226231434976
vt 0.2916842433834841 0.6933648331167901
vt 0.2755546477696939 0.7294183101796738
vt 0.2693185653105972 0.6869226231434976
vt 0.275934940175877 0.648128957950191
vt 0.3067177766319945 0.6569956462472131
vt 0.2916842433834841 0.6933648331167901
vt 0.44932267413567323 0.9935512484745016
vt 0.44457731138749584 0.954629083818244
vt 0.4821905016588063 0.952764561626146
vt 0.4813177627981247 0.9919652210086318
vt 0.44457731138749584 0.954629083818244
vt 0.4416734375 0.9156156347795004
vt 0.4812217516588062 0.913655186626146
vt 0.4821905016588063 0.952764561626146
vt 0.4416734375 0.9156156347795004
vt 0.4407046875 0.8765062597795004
vt 0.4783178777713104 0.8746417375874024
vt 0.4812217516588062 0.913655186626146
vt 0.4407046875 0.8765062597795004
vt 0.44157742636068154 0.8373056003970144
vt 0.473572515023133 0.8357195729311446
vt 0.4783178777713104 0.8746417375874024
vt 0.44157742636068154 0.8373056003970144
vt 0.44401543075294236 0.7980273492894154
vt 0.4672618867433763 0.796875
vt 0.473572515023133 0.8357195729311446
vt 0.07906625793709177 0.7972973239492864
vt 0.09721162675636066 0.832379550979522
vt 0.08723698822657545 0.8394637953175406
vt 0.06009024062678773 0.8107745785673102
vt 0.09820369666317114 0.8408199445506467
vt 0.10970136267563842 0.8366386041069158
vt 0.11731893468940269 0.8754836268565024
vt 0.2754482999787205 0.7297678156739892
vt 0.2854011799908478 0.7368825968445398
vt 0.2576810653105972 0.7651413731434976
vt 0.2755546477696939 0.7294183101796738
vt 0.2916842433834841 0.6933648331167901
vt 0.3113930075647955 0.7057458766691509
vt 0.2859144506388983 0.7359263372349225
vt 0.2916842433834841 0.6933648331167901
vt 0.3087796954588987 0.6579181069798746
vt 0.33590570802906833 0.674958665177411
vt 0.3113930075647955 0.7057458766691509
vt 0.01157338199627022 0.796875
vt 0.003193762943815459 0.7585704917316987
vt 0.040465625000000005 0.7531819089629759
vt 0.043278125 0.7922912839629759
vt 0.48605362692432225 0.9524770190258617
vt 0.4812217516588062 0.913655186626146
vt 0.5206245024021829 0.9097390988307879
vt 0.5235283762896787 0.9487525478695314
vt 0.4812217516588062 0.913655186626146
vt 0.4783178777713104 0.8746417375874024
vt 0.515792627136667 0.8709172664310721
vt 0.5206245024021829 0.9097390988307879
vt 0.4783178777713104 0.8746417375874024
vt 0.4772487148725757 0.835445943682487
vt 0.5091260408823898 0.8322777788975281
vt 0.515792627136667 0.8709172664310721
vt 0.23359977063429999 0.9505077409663384
vt 0.23797945813429996 0.9113983659663384
vt 0.2612544581343 0.9113983659663384
vt 0.2656341456343 0.9505077409663384
vt 0.060090240626787736 0.8107745785673102
vt 0.08723698822657545 0.8394637953175406
vt 0.07961286944148563 0.8490321151487056
vt 0.04558591451916347 0.8289776043917079
vt 0.08853196219059456 0.8483124397246591
vt 0.09820369666317114 0.8408199445506467
vt 0.11731893468940269 0.8754836268565024
vt 0.2854011799908478 0.7368825968445398
vt 0.29270617083651007 0.7466967213793831
vt 0.2576810653105972 0.7651413731434976
vt 0.2859144506388983 0.7359263372349225
vt 0.3113930075647955 0.7057458766691509
vt 0.3269048697620401 0.7230983334454606
vt 0.2940681751961234 0.7450475601510412
vt 0.3113930075647955 0.7057458766691509
vt 0.3376317457073944 0.676415798316504
vt 0.3589813831112551 0.7002987245267551
vt 0.3269048697620401 0.7230983334454606
vt 0.043278125 0.7922912839629759
vt 0.040465625000000005 0.7531819089629759
vt 0.078125 0.7531819089629759
vt 0.0753125 0.7922912839629759
vt 0.32022162371032126 0.6362525478695316
vt 0.32312549759781706 0.5972390988307879
vt 0.36252824834119374 0.601155186626146
vt 0.35769637307567775 0.6399770190258618
vt 0.32312549759781706 0.5972390988307879
vt 0.32795737286333304 0.5584172664310721
vt 0.3654321222286896 0.5621417375874024
vt 0.3625282483411938 0.601155186626146
vt 0.32795737286333304 0.5584172664310721
vt 0.3346239591176102 0.5197777788975281
vt 0.3665012851274243 0.522945943682487
vt 0.3654321222286896 0.5621417375874024
vt 0.2656341456343 0.9505077409663384
vt 0.2612544581343 0.9113983659663384
vt 0.2839529151936828 0.90625
vt 0.296875 0.9434218253485974
vt 0.04558591451916348 0.8289776043917079
vt 0.07961286944148563 0.8490321151487056
vt 0.07493499786714469 0.8603368685371966
vt 0.03668660737083876 0.850484067543044
vt 0.08161002559923763 0.8584003892420714
vt 0.08853196219059456 0.8483124397246591
vt 0.11731893468940269 0.8754836268565024
vt 0.29270617083651007 0.7466967213793833
vt 0.2966654829739082 0.7582727215106582
vt 0.2576810653105972 0.7651413731434976
vt 0.2940681751961234 0.7450475601510412
vt 0.3269048697620401 0.7230983334454606
vt 0.3370077761469633 0.7440663306692652
vt 0.29937871205124883 0.7560692719033499
vt 0.3269048697620401 0.7230983334454606
vt 0.36023667185084846 0.7021766737359444
vt 0.3741417327197862 0.7310358224391158
vt 0.3370077761469633 0.7440663306692652
vt 0.36243223720187534 0.6794652210086318
vt 0.3615594983411938 0.640264561626146
vt 0.39917268861250416 0.642129083818244
vt 0.3944273258643268 0.6810512484745017
vt 0.3615594983411938 0.640264561626146
vt 0.3625282483411938 0.601155186626146
vt 0.4020765625 0.6031156347795004
vt 0.39917268861250416 0.642129083818244
vt 0.3625282483411938 0.601155186626146
vt 0.3654321222286896 0.5621417375874024
vt 0.4030453125 0.5640062597795004
vt 0.4020765625 0.6031156347795004
vt 0.3654321222286896 0.5621417375874024
vt 0.370177484976867 0.5232195729311446
vt 0.40217257363931846 0.5248056003970144
vt 0.4030453125 0.5640062597795004
vt 0.370177484976867 0.5232195729311446
vt 0.3764881132566237 0.484375
vt 0.39973456924705764 0.48552734928941543
vt 0.40217257363931846 0.5248056003970144
vt 0.03668660737083876 0.850484067543044
vt 0.07493499786714469 0.8603368685371966
vt 0.07356888939569164 0.8724947334519277
vt 0.03408768632476407 0.8736135127243766
vt 0.07809908620673053 0.8701201689423375
vt 0.08161002559923763 0.8584003892420714
vt 0.11731893468940269 0.8754836268565024
vt 0.2966654829739082 0.7582727215106582
vt 0.2969009137932694 0.7705048310576628
vt 0.2576810653105972 0.7651413731434976
vt 0.29937871205124883 0.7560692719033499
vt 0.3370077761469633 0.7440663306692652
vt 0.3409123136752359 0.7670114872756235
vt 0.3014311106043083 0.7681302665480724
vt 0.21492957281714997 0.8854766340336616
vt 0.21054988531715 0.8463672590336616
vt 0.24258426031714997 0.8463672590336616
vt 0.23820457281715 0.8854766340336616
vt 0.40585781249999997 0.6813343847795004
vt 0.4030453125 0.6422250097795004
vt 0.4407046875 0.6422250097795004
vt 0.43789218750000003 0.6813343847795004
vt 0.4030453125 0.6422250097795004
vt 0.4020765625 0.6031156347795004
vt 0.4416734375 0.6031156347795004
vt 0.4407046875 0.6422250097795004
vt 0.4020765625 0.6031156347795004
vt 0.4030453125 0.5640062597795004
vt 0.4407046875 0.5640062597795004
vt 0.4416734375 0.6031156347795004
vt 0.4030453125 0.5640062597795004
vt 0.40585781249999997 0.5248968847795004
vt 0.43789218750000003 0.5248968847795004
vt 0.4407046875 0.5640062597795004
vt 0.40585781249999997 0.5248968847795004
vt 0.41023750000000003 0.48578750977950036
vt 0.43351249999999997 0.48578750977950036
vt 0.43789218750000003 0.5248968847795004
vt 0.03408768632476408 0.8736135127243766
vt 0.07356888939569164 0.8724947334519277
vt 0.07562128794875114 0.8845557280966502
vt 0.03799222385303666 0.8965586693307349
vt 0.07833451702609173 0.882352278489342
vt 0.07809908620673053 0.8701201689423375
vt 0.11731893468940269 0.8754836268565024
vt 0.2969009137932694 0.7705048310576628
vt 0.29338997440076225 0.7822246107579287
vt 0.2576810653105972 0.7651413731434976
vt 0.3014311106043083 0.7681302665480724
vt 0.3409123136752359 0.7670114872756235
vt 0.3383133926291612 0.7901409324569562
vt 0.30006500213285525 0.7802881314628034
vt 0.23820457281715 0.8854766340336616
vt 0.24258426031714997 0.8463672590336616
vt 0.27382511468285 0.8534531746514026
vt 0.26090302987653285 0.890625
vt 0.44932267413567323 0.6810512484745016
vt 0.44457731138749584 0.642129083818244
vt 0.4821905016588063 0.640264561626146
vt 0.4813177627981247 0.6794652210086318
vt 0.44457731138749584 0.642129083818244
vt 0.4416734375 0.6031156347795004
vt 0.4812217516588062 0.601155186626146
vt 0.4821905016588063 0.640264561626146
vt 0.4416734375 0.6031156347795004
vt 0.4407046875 0.5640062597795004
vt 0.4783178777713104 0.5621417375874024
vt 0.4812217516588062 0.601155186626146
vt 0.4407046875 0.5640062597795004
vt 0.44157742636068154 0.5248056003970144
vt 0.473572515023133 0.5232195729311446
vt 0.4783178777713104 0.5621417375874024
vt 0.0008582672802138203 0.9095891775608843
vt 0.03799222385303666 0.8965586693307349
vt 0.0480951302379599 0.9175266665545395
vt 0.014763328149151544 0.9384483262640557
vt 0.03799222385303666 0.8965586693307349
vt 0.07562128794875114 0.8845557280966502
vt 0.08093182480387662 0.8955774398489589
vt 0.0480951302379599 0.9175266665545395
vt 0.08229382916348987 0.8939282786206169
vt 0.07833451702609173 0.882352278489342
vt 0.11731893468940269 0.8754836268565024
vt 0.29338997440076225 0.7822246107579287
vt 0.28646803780940533 0.7923125602753409
vt 0.2576810653105972 0.7651413731434976
vt 0.30006500213285525 0.7802881314628034
vt 0.3383133926291612 0.7901409324569562
vt 0.3294140854808365 0.8116473956082921
vt 0.29538713055851434 0.7915928848512944
vt 0.4654730753213312 0.515625
vt 0.437778236790946 0.48766572972582845
vt 0.46290485321436214 0.4677947879074057
vt 0.4837291517159857 0.5011875036909947
vt 0.0809375 0.75
vt 0.078125 0.703125
vt 0.115784375 0.703125
vt 0.112971875 0.75
vt 0.48605362692432225 0.6399770190258618
vt 0.4812217516588062 0.601155186626146
vt 0.5206245024021829 0.5972390988307879
vt 0.5235283762896787 0.6362525478695316
vt 0.4812217516588062 0.601155186626146
vt 0.4783178777713104 0.5621417375874024
vt 0.515792627136667 0.5584172664310721
vt 0.5206245024021829 0.5972390988307879
vt 0.4783178777713104 0.5621417375874024
vt 0.4772487148725757 0.522945943682487
vt 0.5091260408823898 0.5197777788975281
vt 0.515792627136667 0.5584172664310721
vt 0.016018616888744897 0.940326275473245
vt 0.0480951302379599 0.9175266665545395
vt 0.06360699243520448 0.9348791233308492
vt 0.03736825429260554 0.964209201683496
vt 0.0480951302379599 0.9175266665545395
vt 0.08093182480387662 0.8955774398489589
vt 0.08908554936110172 0.9046986627650776
vt 0.06360699243520448 0.9348791233308492
vt 0.0895988200091522 0.9037424031554603
vt 0.08229382916348987 0.8939282786206169
vt 0.1173189346894027 0.8754836268565024
vt 0.28646803780940533 0.7923125602753409
vt 0.2767963033368287 0.7998050554493534
vt 0.2576810653105972 0.7651413731434976
vt 0.29538713055851434 0.7915928848512944
vt 0.3294140854808365 0.8116473956082921
vt 0.3149097593732122 0.8298504214326898
vt 0.28776301177342456 0.8011612046824594
vt 0.4837291517159857 0.5011875036909947
vt 0.46290485321436214 0.4677947879074057
vt 0.49180445813429996 0.45397400583430536
vt 0.5047265429406171 0.4911458311829028
vt 0.46290485321436214 0.4677947879074057
vt 0.4434943828141286 0.43372593104395507
vt 0.4774685452265928 0.4174783215655694
vt 0.49180445813429996 0.45397400583430536
vt 0.47647162371032126 0.7883497689720035
vt 0.47937549759781706 0.7493363199332599
vt 0.5187782483411938 0.7532524077286179
vt 0.5139463730756777 0.7920742401283337
vt 0.47937549759781706 0.7493363199332599
vt 0.48420737286333304 0.7105144875335441
vt 0.5216821222286896 0.7142389586898743
vt 0.5187782483411938 0.7532524077286179
vt 0.48420737286333304 0.7105144875335441
vt 0.4908739591176102 0.671875
vt 0.5227512851274243 0.6750431647849591
vt 0.5216821222286896 0.7142389586898743
vt 0.0390942919709317 0.9656663348225891
vt 0.06360699243520448 0.9348791233308492
vt 0.08331575661651593 0.94726016688321
vt 0.06622030454110132 0.9827068930201255
vt 0.06360699243520448 0.9348791233308492
vt 0.08908554936110172 0.9046986627650776
vt 0.0994453522303061 0.9112066898203263
vt 0.08331575661651591 0.94726016688321
vt 0.09955170002127949 0.9108571843260109
vt 0.0895988200091522 0.9037424031554603
vt 0.11731893468940273 0.8754836268565024
vt 0.2767963033368287 0.7998050554493534
vt 0.26529863732436143 0.8039863958930842
vt 0.25768106531059726 0.7651413731434976
vt 0.28776301177342456 0.8011612046824594
vt 0.3149097593732122 0.8298504214326898
vt 0.2959337420629082 0.8433276760507136
vt 0.2777883732436393 0.808245449020478
vt 0.5047265429406171 0.4911458311829028
vt 0.49180445813429996 0.45397400583430536
vt 0.5230453125 0.4468880902165644
vt 0.527425 0.4859974652165644
vt 0.5186822372018753 0.8315624421111039
vt 0.5178094983411938 0.7923617827286179
vt 0.5554226886125042 0.7942263049207159
vt 0.5506773258643268 0.8331484695769735
vt 0.5178094983411938 0.7923617827286179
vt 0.5187782483411938 0.7532524077286179
vt 0.5583265625 0.7552128558819723
vt 0.5554226886125042 0.7942263049207159
vt 0.5187782483411938 0.7532524077286179
vt 0.5216821222286896 0.7142389586898743
vt 0.5592953125 0.7161034808819723
vt 0.5583265625 0.7552128558819723
vt 0.5216821222286896 0.7142389586898743
vt 0.526427484976867 0.6753167940336167
vt 0.5584225736393185 0.6769028214994863
vt 0.5592953125 0.7161034808819723
vt 0.0682822233680055 0.983629353752787
vt 0.08331575661651591 0.94726016688321
vt 0.10568143468940278 0.9537023768565025
vt 0.099065059824123 0.9924960420498091
vt 0.08331575661651591 0.94726016688321
vt 0.0994453522303061 0.9112066898203263
vt 0.11120174718940277 0.9145930018565025
vt 0.10568143468940278 0.9537023768565025
vt 0.11120174718940277 0.9145930018565025
vt 0.09955170002127949 0.9108571843260109
vt 0.11731893468940276 0.8754836268565025
vt 0.2622888073238442 0.8044571703418267
vt 0.25006349329683303 0.8039863958930842
vt 0.2576810653105972 0.7651413731434976
vt 0.2622888073238442 0.8044571703418267
vt 0.266300116392223 0.84375
vt 0.24304235422793713 0.8428543861828266
vt 0.25006349329683303 0.8039863958930842
vt 0.527425 0.4859974652165644
vt 0.5230453125 0.4468880902165644
vt 0.5550796875 0.4468880902165644
vt 0.5507 0.4859974652165644
vt 0.5621078125 0.8334316058819723
vt 0.5592953125 0.7943222308819723
vt 0.5969546875 0.7943222308819723
vt 0.5941421875 0.8334316058819723
vt 0.5592953125 0.7943222308819723
vt 0.5583265625 0.7552128558819723
vt 0.5979234375 0.7552128558819723
vt 0.5969546875 0.7943222308819723
vt 0.5583265625 0.7552128558819723
vt 0.5592953125 0.7161034808819723
vt 0.5969546875 0.7161034808819723
vt 0.5979234375 0.7552128558819723
vt 0.5592953125 0.7161034808819723
vt 0.5621078125 0.6769941058819723
vt 0.5941421875 0.6769941058819723
vt 0.5969546875 0.7161034808819723
vt 0.10130174718940277 0.9928117518565025
vt 0.10568143468940278 0.9537023768565025
vt 0.12895643468940277 0.9537023768565025
vt 0.13333612218940277 0.9928117518565025
vt 0.10568143468940278 0.9537023768565025
vt 0.11120174718940277 0.9145930018565025
vt 0.12343612218940277 0.9145930018565025
vt 0.12895643468940277 0.9537023768565025
vt 0.12343612218940277 0.9145930018565025
vt 0.11120174718940277 0.9145930018565025
vt 0.11731893468940277 0.8754836268565025
vt 0.25006349329683303 0.8039863958930842
vt 0.23856582728436573 0.7998050554493534
vt 0.2576810653105972 0.7651413731434976
vt 0.25006349329683303 0.8039863958930842
vt 0.24188498789650914 0.8426274247666165
vt 0.22001152264469395 0.8346727316312634
vt 0.23856582728436573 0.7998050554493534
vt 0.5507 0.4859974652165644
vt 0.5550796875 0.4468880902165644
vt 0.5863205418657 0.45397400583430536
vt 0.5733984570593829 0.4911458311829028
vt 0.6055726741356733 0.8331484695769735
vt 0.6008273113874958 0.7942263049207159
vt 0.6384405016588063 0.7923617827286179
vt 0.6375677627981247 0.8315624421111039
vt 0.6008273113874958 0.7942263049207159
vt 0.5979234375 0.7552128558819723
vt 0.6374717516588062 0.7532524077286179
vt 0.6384405016588063 0.7923617827286179
vt 0.5979234375 0.7552128558819723
vt 0.5969546875 0.7161034808819723
vt 0.6345678777713104 0.7142389586898743
vt 0.6374717516588062 0.7532524077286179
vt 0.5969546875 0.7161034808819723
vt 0.5978274263606815 0.6769028214994863
vt 0.629822515023133 0.6753167940336167
vt 0.6345678777713104 0.7142389586898743
vt 0.13789337975251592 0.9920989406955121
vt 0.1301216772523942 0.9535201185810684
vt 0.15228503646265787 0.9464130000709533
vt 0.16839775613065944 0.9823171104260182
vt 0.1301216772523942 0.9535201185810684
vt 0.12343612218940278 0.9145930018565025
vt 0.13508616935752604 0.9108571843260109
vt 0.15228503646265787 0.9464130000709534
vt 0.13508616935752604 0.9108571843260109
vt 0.12343612218940277 0.9145930018565025
vt 0.11731893468940278 0.8754836268565025
vt 0.23856582728436573 0.7998050554493534
vt 0.22889409281178916 0.7923125602753409
vt 0.2576810653105972 0.7651413731434976
vt 0.23856582728436573 0.7998050554493534
vt 0.2189787370782461 0.8341032035078946
vt 0.20057897249286924 0.8198492816544989
vt 0.22889409281178916 0.792312560275341
vt 0.5733984570593829 0.4911458311829028
vt 0.5863205418657 0.45397400583430536
vt 0.6152201467856379 0.4677947879074057
vt 0.5943958482840144 0.5011875036909947
vt 0.5863205418657 0.45397400583430536
vt 0.6006564547734072 0.4174783215655694
vt 0.6346306171858713 0.43372593104395507
vt 0.6152201467856379 0.4677947879074057
vt 0.6423036269243223 0.7920742401283336
vt 0.6374717516588062 0.7532524077286179
vt 0.6768745024021829 0.7493363199332599
vt 0.6797783762896787 0.7883497689720034
vt 0.6374717516588062 0.7532524077286179
vt 0.6345678777713104 0.7142389586898743
vt 0.672042627136667 0.7105144875335441
vt 0.6768745024021829 0.7493363199332599
vt 0.6345678777713104 0.7142389586898743
vt 0.6334987148725757 0.6750431647849591
vt 0.6653760408823898 0.671875
vt 0.672042627136667 0.7105144875335441
vt 0.1725196939604543 0.9802467663060493
vt 0.15333897237362282 0.9458836349746829
vt 0.17227359570193035 0.9323482862752547
vt 0.1985802234634726 0.9616174887123545
vt 0.15333897237362282 0.9458836349746829
vt 0.13508616935752604 0.9108571843260109
vt 0.14503904936965334 0.9037424031554603
vt 0.17227359570193032 0.9323482862752547
vt 0.14503904936965334 0.9037424031554603
vt 0.13508616935752604 0.9108571843260109
vt 0.11731893468940281 0.8754836268565024
vt 0.22889409281178916 0.7923125602753409
vt 0.2219721562204322 0.7822246107579287
vt 0.2576810653105972 0.7651413731434976
vt 0.22889409281178916 0.7923125602753409
vt 0.19976942174619972 0.8189915894613795
vt 0.1866009456970486 0.7998000063181645
vt 0.2219721562204322 0.7822246107579287
vt 0.5943958482840144 0.5011875036909947
vt 0.6152201467856379 0.4677947879074057
vt 0.640346763209054 0.48766572972582845
vt 0.6126519246786688 0.515625
vt 0.012028125 0.703125
vt 0.009215624999999998 0.65625
vt 0.046875 0.65625
vt 0.0440625 0.703125
vt 0.007721623710321229 0.6206275478695316
vt 0.010625497597817057 0.5816140988307879
vt 0.05002824834119375 0.585530186626146
vt 0.045196373075677754 0.6243520190258618
vt 0.010625497597817057 0.5816140988307879
vt 0.015457372863333069 0.5427922664310721
vt 0.05293212222868959 0.5465167375874024
vt 0.050028248341193765 0.585530186626146
vt 0.015457372863333069 0.5427922664310721
vt 0.022123959117610198 0.5041527788975281
vt 0.0540012851274243 0.507320943682487
vt 0.052932122228689586 0.5465167375874024
vt 0.2018731045696715 0.9583873756697162
vt 0.17311555057647382 0.9315223805307514
vt 0.1870127592146585 0.9128517293083981
vt 0.22100042542762413 0.9326901622325057
vt 0.17311555057647382 0.9315223805307514
vt 0.14503904936965334 0.9037424031554603
vt 0.15234404021531567 0.8939282786206169
vt 0.1870127592146585 0.9128517293083981
vt 0.15234404021531567 0.8939282786206169
vt 0.14503904936965334 0.9037424031554603
vt 0.11731893468940284 0.8754836268565024
vt 0.2219721562204322 0.7822246107579287
vt 0.21846121682792508 0.7705048310576628
vt 0.2576810653105972 0.7651413731434976
vt 0.2219721562204322 0.7822246107579287
vt 0.18609195992107974 0.7987360787880045
vt 0.17941265555444036 0.776440058556183
vt 0.21846121682792508 0.7705048310576628
vt 0.23909697012346712 1
vt 0.22617488531715 0.9628281746514026
vt 0.25741573968285003 0.9557422590336616
vt 0.26179542718285 0.9948516340336616
vt 0.04993223720187531 0.6638402210086318
vt 0.049059498341193775 0.624639561626146
vt 0.08667268861250417 0.626504083818244
vt 0.0819273258643268 0.6654262484745017
vt 0.049059498341193775 0.624639561626146
vt 0.050028248341193765 0.585530186626146
vt 0.08957656250000001 0.5874906347795004
vt 0.08667268861250416 0.626504083818244
vt 0.050028248341193765 0.585530186626146
vt 0.05293212222868959 0.5465167375874024
vt 0.0905453125 0.5483812597795004
vt 0.0895765625 0.5874906347795004
vt 0.05293212222868959 0.5465167375874024
vt 0.05767748497686696 0.5075945729311446
vt 0.08967257363931846 0.5091806003970144
vt 0.09054531249999999 0.5483812597795004
vt 0.22314970622669084 0.9286088281008096
vt 0.18756230758496872 0.911808175333627
vt 0.19509460817228452 0.8897856851732859
vt 0.23351673271978618 0.8982983358030575
vt 0.18756230758496872 0.911808175333627
vt 0.15234404021531567 0.8939282786206169
vt 0.1563033523527138 0.882352278489342
vt 0.19509460817228452 0.8897856851732859
vt 0.1563033523527138 0.882352278489342
vt 0.15234404021531567 0.8939282786206169
vt 0.11731893468940285 0.8754836268565024
vt 0.21846121682792508 0.7705048310576628
vt 0.21869664764728625 0.7582727215106582
vt 0.2576810653105972 0.7651413731434976
vt 0.21846121682792508 0.7705048310576628
vt 0.17925285424218726 0.7752715244958437
vt 0.17970074408704093 0.7520008343538027
vt 0.21869664764728625 0.7582727215106582
vt 0.26179542718285 0.9948516340336616
vt 0.25741573968285003 0.9557422590336616
vt 0.28945011468285 0.9557422590336616
vt 0.28507042718285003 0.9948516340336616
vt 0.0933578125 0.6657093847795004
vt 0.0905453125 0.6266000097795004
vt 0.1282046875 0.6266000097795004
vt 0.1253921875 0.6657093847795004
vt 0.0905453125 0.6266000097795004
vt 0.0895765625 0.5874906347795004
vt 0.1291734375 0.5874906347795004
vt 0.1282046875 0.6266000097795004
vt 0.0895765625 0.5874906347795004
vt 0.0905453125 0.5483812597795004
vt 0.1282046875 0.5483812597795004
vt 0.1291734375 0.5874906347795004
vt 0.0905453125 0.5483812597795004
vt 0.0933578125 0.5092718847795004
vt 0.1253921875 0.5092718847795004
vt 0.1282046875 0.5483812597795004
vt 0.0933578125 0.5092718847795004
vt 0.0977375 0.47016250977950036
vt 0.1210125 0.47016250977950036
vt 0.1253921875 0.5092718847795004
vt 0.1952992559129591 0.8886241656461974
vt 0.1563033523527138 0.882352278489342
vt 0.156538783172075 0.8701201689423375
vt 0.19574714575781282 0.8653534755041565
vt 0.156538783172075 0.8701201689423375
vt 0.1563033523527138 0.882352278489342
vt 0.11731893468940285 0.8754836268565024
vt 0.21869664764728625 0.7582727215106582
vt 0.22265595978468436 0.7466967213793833
vt 0.2576810653105972 0.7651413731434976
vt 0.21869664764728625 0.7582727215106582
vt 0.17990539182771553 0.7508393148267143
vt 0.18743769241503125 0.7288168246663731
vt 0.22265595978468436 0.7466967213793833
vt 0.17990539182771553 0.7508393148267143
vt 0.14148326728021382 0.7423266641969428
vt 0.15185029377330908 0.7120161718991908
vt 0.18743769241503125 0.7288168246663731
vt 0.13682267413567323 0.6654262484745016
vt 0.13207731138749584 0.626504083818244
vt 0.16969050165880625 0.624639561626146
vt 0.16881776279812472 0.6638402210086318
vt 0.13207731138749584 0.626504083818244
vt 0.1291734375 0.5874906347795004
vt 0.16872175165880623 0.585530186626146
vt 0.16969050165880625 0.624639561626146
vt 0.1291734375 0.5874906347795004
vt 0.1282046875 0.5483812597795004
vt 0.1658178777713104 0.5465167375874024
vt 0.16872175165880623 0.585530186626146
vt 0.1282046875 0.5483812597795004
vt 0.12907742636068154 0.5091806003970144
vt 0.161072515023133 0.5075945729311446
vt 0.1658178777713104 0.5465167375874024
vt 0.12907742636068154 0.5091806003970144
vt 0.13151543075294236 0.46990234928941543
vt 0.15476188674337635 0.46875
vt 0.16107251502313302 0.5075945729311446
vt 0.19558734444555972 0.8641849414438172
vt 0.156538783172075 0.8701201689423375
vt 0.1530278437795679 0.8584003892420714
vt 0.1889080400789204 0.8418889212119958
vt 0.1530278437795679 0.8584003892420714
vt 0.156538783172075 0.8701201689423375
vt 0.11731893468940285 0.8754836268565024
vt 0.22265595978468436 0.7466967213793831
vt 0.22996095063034666 0.7368825968445398
vt 0.2576810653105972 0.7651413731434976
vt 0.22265595978468436 0.7466967213793833
vt 0.1879872407853415 0.727773270691602
vt 0.20188444942352615 0.7091026194692487
vt 0.22996095063034666 0.7368825968445398
vt 0.1879872407853415 0.727773270691602
vt 0.1539995745723758 0.7079348377674946
vt 0.17312689543032841 0.682237624330284
vt 0.20188444942352615 0.7091026194692487
vt 0.0809375 0.7922912839629759
vt 0.078125 0.7531819089629759
vt 0.115784375 0.7531819089629759
vt 0.112971875 0.7922912839629759
vt 0.17355362692432225 0.6243520190258618
vt 0.16872175165880623 0.585530186626146
vt 0.20812450240218291 0.5816140988307879
vt 0.21102837628967877 0.6206275478695316
vt 0.16872175165880623 0.585530186626146
vt 0.1658178777713104 0.5465167375874024
vt 0.20329262713666693 0.5427922664310721
vt 0.20812450240218294 0.5816140988307879
vt 0.1658178777713104 0.5465167375874024
vt 0.1647487148725757 0.507320943682487
vt 0.1966260408823898 0.5041527788975281
vt 0.20329262713666693 0.5427922664310721
vt 0 0.7402968253485974
vt 0.012922084806317152 0.703125
vt 0.03562054186570003 0.7082733659663384
vt 0.031240854365700035 0.7473827409663384
vt 0.18839905430295156 0.8408249936818357
vt 0.1530278437795679 0.8584003892420714
vt 0.14610590718821098 0.8483124397246591
vt 0.1752305782538005 0.8216334105386206
vt 0.14610590718821098 0.8483124397246591
vt 0.1530278437795679 0.8584003892420714
vt 0.11731893468940285 0.8754836268565024
vt 0.2299609506303467 0.7368825968445398
vt 0.23991383064247396 0.7297678156739892
vt 0.2576810653105972 0.7651413731434976
vt 0.2299609506303467 0.7368825968445398
vt 0.20272640429806965 0.7082767137247454
vt 0.22166102762637713 0.6947413650253172
vt 0.23991383064247396 0.7297678156739892
vt 0.20272640429806965 0.7082767137247454
vt 0.17641977653652732 0.6790075112876456
vt 0.2024803060395456 0.6603782336939508
vt 0.22166102762637713 0.6947413650253172
vt 0.112971875 0.7922912839629759
vt 0.115784375 0.7531819089629759
vt 0.15305623705618454 0.7585704917316987
vt 0.14467661800372977 0.796875
vt 0.32022162371032126 0.9487525478695316
vt 0.32312549759781706 0.9097390988307879
vt 0.36252824834119374 0.913655186626146
vt 0.35769637307567775 0.9524770190258617
vt 0.32312549759781706 0.9097390988307879
vt 0.32795737286333304 0.8709172664310721
vt 0.3654321222286896 0.8746417375874024
vt 0.3625282483411938 0.913655186626146
vt 0.32795737286333304 0.8709172664310721
vt 0.3346239591176102 0.8322777788975281
vt 0.3665012851274243 0.835445943682487
vt 0.3654321222286896 0.8746417375874024
vt 0.031240854365700035 0.7473827409663384
vt 0.03562054186570003 0.7082733659663384
vt 0.058895541865700035 0.7082733659663384
vt 0.06327522936570003 0.7473827409663384
vt 0.17442102750713095 0.8207757183455013
vt 0.14610590718821098 0.8483124397246591
vt 0.1364341727156344 0.8408199445506467
vt 0.15602126292175414 0.8065217964921055
vt 0.1364341727156344 0.8408199445506467
vt 0.14610590718821098 0.8483124397246591
vt 0.11731893468940285 0.8754836268565024
vt 0.23991383064247396 0.7297678156739892
vt 0.25156387781059725 0.7260319981434976
vt 0.2576810653105972 0.7651413731434976
vt 0.23991383064247396 0.7297678156739892
vt 0.2227149635373421 0.6942119999290467
vt 0.24487832274760576 0.6871048814189316
vt 0.2515638778105972 0.7260319981434976
vt 0.2227149635373421 0.6942119999290467
vt 0.20660224386934056 0.6583078895739818
vt 0.23710662024748405 0.6485260593044879
vt 0.24487832274760576 0.6871048814189316
vt 0.36243223720187534 0.9919652210086319
vt 0.3615594983411938 0.952764561626146
vt 0.39917268861250416 0.954629083818244
vt 0.3944273258643268 0.9935512484745016
vt 0.3615594983411938 0.952764561626146
vt 0.3625282483411938 0.913655186626146
vt 0.4020765625 0.9156156347795004
vt 0.39917268861250416 0.954629083818244
vt 0.3625282483411938 0.913655186626146
vt 0.3654321222286896 0.8746417375874024
vt 0.4030453125 0.8765062597795004
vt 0.4020765625 0.9156156347795004
vt 0.3654321222286896 0.8746417375874024
vt 0.370177484976867 0.8357195729311446
vt 0.40217257363931846 0.8373056003970144
vt 0.4030453125 0.8765062597795004
vt 0.370177484976867 0.8357195729311446
vt 0.3764881132566237 0.796875
vt 0.39973456924705764 0.7980273492894154
vt 0.40217257363931846 0.8373056003970144
vt 0.15498847735530627 0.8059522683687368
vt 0.1364341727156344 0.8408199445506467
vt 0.12493650670316712 0.8366386041069158
vt 0.13311501210349108 0.7979975752333837
vt 0.12493650670316712 0.8366386041069158
vt 0.1364341727156344 0.8408199445506467
vt 0.11731893468940285 0.8754836268565024
vt 0.25156387781059725 0.7260319981434976
vt 0.2637982528105972 0.7260319981434976
vt 0.2576810653105972 0.7651413731434976
vt 0.25156387781059725 0.7260319981434976
vt 0.24604356531059723 0.6869226231434976
vt 0.2693185653105972 0.6869226231434976
vt 0.2637982528105972 0.7260319981434976
vt 0.24604356531059723 0.6869226231434976
vt 0.24166387781059723 0.6478132481434976
vt 0.27369825281059723 0.6478132481434976
vt 0.2693185653105972 0.6869226231434976
vt 0.40585781249999997 0.9938343847795004
vt 0.4030453125 0.9547250097795004
vt 0.4407046875 0.9547250097795004
vt 0.43789218750000003 0.9938343847795004
vt 0.4030453125 0.9547250097795004
vt 0.4020765625 0.9156156347795004
vt 0.4416734375 0.9156156347795004
vt 0.4407046875 0.9547250097795004
vt 0.4020765625 0.9156156347795004
vt 0.4030453125 0.8765062597795004
vt 0.4407046875 0.8765062597795004
vt 0.4416734375 0.9156156347795004
vt 0.4030453125 0.8765062597795004
vt 0.40585781249999997 0.8373968847795004
vt 0.43789218750000003 0.8373968847795004
vt 0.4407046875 0.8765062597795004
vt 0.40585781249999997 0.8373968847795004
vt 0.41023750000000003 0.7982875097795004
vt 0.43351249999999997 0.7982875097795004
vt 0.43789218750000003 0.8373968847795004
vt 0.13195764577206318 0.7977706138171735
vt 0.12493650670316712 0.8366386041069158
vt 0.11271119267615595 0.8361678296581734
vt 0.10869988360777728 0.796875
vt 0.11271119267615595 0.8361678296581734
vt 0.12493650670316712 0.8366386041069158
vt 0.11731893468940284 0.8754836268565024
vn 0.04834090820338499 0.9876883405951379 0.14877801734965812
vn 0.14029077970429496 0.891006524188368 0.431770623113389
vn 0.21850801222441046 0.7071067811865476 0.6724985119639574
vn 0.2753361580731584 0.45399049973954636 0.8473975608908428
vn 0.3052124823898891 0.15643446504023134 0.9393474323917527
vn 0.3052124823898889 -0.15643446504023098 0.9393474323917528
vn 0.2753361580731582 -0.4539904997395467 0.8473975608908428
vn 0.21850801222441088 -0.7071067811865474 0.6724985119639575
vn 0.14029077970429535 -0.8910065241883678 0.43177062311338926
vn 0.04834090820338503 -0.9876883405951378 0.14877801734965804
vn 0.09194987150091032 0.9876883405951379 0.1265581407235005
vn 0.2668489204277954 0.8910065241883681 0.3672860295740683
vn 0.4156269377774534 0.7071067811865476 0.5720614028176844
vn 0.5237204946142996 0.4539904997395463 0.7208394201673425
vn 0.5805486404630469 0.15643446504023117 0.7990566526874578
vn 0.5805486404630471 -0.15643446504023079 0.7990566526874577
vn 0.5237204946142994 -0.4539904997395467 0.7208394201673425
vn 0.41562693777745335 -0.7071067811865476 0.5720614028176845
vn 0.2668489204277955 -0.8910065241883678 0.36728602957406853
vn 0.09194987150091022 -0.9876883405951378 0.12655814072350047
vn 0.12655814072350052 0.9876883405951379 0.09194987150091029
vn 0.36728602957406836 0.891006524188368 0.26684892042779534
vn 0.5720614028176844 0.7071067811865476 0.4156269377774533
vn 0.7208394201673426 0.45399049973954625 0.5237204946142996
vn 0.7990566526874578 0.15643446504023142 0.5805486404630469
vn 0.7990566526874577 -0.15643446504023092 0.5805486404630471
vn 0.7208394201673426 -0.4539904997395465 0.5237204946142993
vn 0.5720614028176843 -0.7071067811865475 0.41562693777745346
vn 0.3672860295740686 -0.891006524188368 0.26684892042779557
vn 0.12655814072350044 -0.9876883405951378 0.09194987150091023
vn 0.14877801734965812 0.9876883405951379 0.048340908203385075
vn 0.431770623113389 0.891006524188368 0.14029077970429518
vn 0.6724985119639572 0.7071067811865476 0.21850801222441077
vn 0.8473975608908428 0.45399049973954636 0.2753361580731588
vn 0.9393474323917526 0.15643446504023117 0.30521248238988946
vn 0.9393474323917527 -0.15643446504023079 0.3052124823898893
vn 0.8473975608908428 -0.45399049973954664 0.2753361580731587
vn 0.6724985119639576 -0.7071067811865474 0.2185080122244109
vn 0.4317706231133893 -0.891006524188368 0.14029077970429538
vn 0.14877801734965804 -0.9876883405951378 0.048340908203385026
vn 0.15643446504023104 0.9876883405951378 -8.871310937935229e-17
vn 0.45399049973954664 0.891006524188368 -3.5734513148990647e-16
vn 0.7071067811865476 0.7071067811865476 -2.596264352030847e-16
vn 0.8910065241883682 0.45399049973954647 -2.9446858263341683e-16
vn 0.9876883405951377 0.1564344650402314 -3.5007033044713615e-16
vn 0.9876883405951378 -0.156434465040231 -3.680857282917709e-16
vn 0.8910065241883679 -0.45399049973954664 -3.4616858027077963e-16
vn 0.7071067811865478 -0.7071067811865474 -3.573451314899065e-16
vn 0.4539904997395469 -0.8910065241883678 -2.265702772465493e-16
vn 0.15643446504023095 -0.9876883405951378 -8.871310937935223e-17
vn 0.14877801734965812 0.9876883405951378 -0.04834090820338494
vn 0.4317706231133891 0.891006524188368 -0.14029077970429485
vn 0.6724985119639574 0.7071067811865477 -0.21850801222441033
vn 0.8473975608908428 0.4539904997395464 -0.2753361580731584
vn 0.9393474323917528 0.15643446504023137 -0.305212482389889
vn 0.9393474323917528 -0.15643446504023098 -0.30521248238988874
vn 0.8473975608908428 -0.45399049973954664 -0.2753361580731581
vn 0.6724985119639575 -0.7071067811865474 -0.21850801222441055
vn 0.4317706231133894 -0.8910065241883679 -0.1402907797042953
vn 0.14877801734965806 -0.9876883405951379 -0.048340908203385
vn 0.1265581407235005 0.9876883405951378 -0.09194987150091027
vn 0.36728602957406825 0.891006524188368 -0.2668489204277953
vn 0.5720614028176844 0.7071067811865476 -0.41562693777745335
vn 0.7208394201673426 0.4539904997395462 -0.5237204946142995
vn 0.7990566526874578 0.15643446504023117 -0.5805486404630469
vn 0.7990566526874577 -0.1564344650402308 -0.5805486404630471
vn 0.7208394201673426 -0.4539904997395467 -0.5237204946142993
vn 0.5720614028176845 -0.7071067811865474 -0.41562693777745335
vn 0.3672860295740686 -0.8910065241883678 -0.26684892042779546
vn 0.12655814072350047 -0.9876883405951378 -0.09194987150091019
vn 0.09194987150091029 0.9876883405951379 -0.12655814072350052
vn 0.26684892042779534 0.891006524188368 -0.36728602957406836
vn 0.4156269377774533 0.7071067811865476 -0.5720614028176844
vn 0.5237204946142996 0.45399049973954625 -0.7208394201673426
vn 0.5805486404630469 0.15643446504023142 -0.7990566526874578
vn 0.5805486404630472 -0.15643446504023095 -0.7990566526874578
vn 0.5237204946142993 -0.4539904997395465 -0.7208394201673426
vn 0.4156269377774536 -0.7071067811865476 -0.5720614028176844
vn 0.2668489204277955 -0.8910065241883678 -0.36728602957406853
vn 0.09194987150091023 -0.9876883405951378 -0.12655814072350044
vn 0.048340908203385 0.9876883405951379 -0.14877801734965812
vn 0.140290779704295 0.8910065241883681 -0.4317706231133891
vn 0.21850801222441057 0.7071067811865475 -0.6724985119639574
vn 0.27533615807315853 0.4539904997395463 -0.847397560890843
vn 0.3052124823898892 0.15643446504023117 -0.9393474323917527
vn 0.30521248238988896 -0.15643446504023079 -0.9393474323917528
vn 0.27533615807315837 -0.4539904997395466 -0.8473975608908427
vn 0.21850801222441052 -0.7071067811865472 -0.6724985119639576
vn 0.14029077970429515 -0.8910065241883678 -0.4317706231133893
vn 0.04834090820338496 -0.9876883405951378 -0.1487780173496581
vn 8.871310937935239e-17 0.9876883405951379 -0.15643446504023104
vn 2.3823008765993786e-16 0.891006524188368 -0.45399049973954664
vn 3.4616858027077983e-16 0.7071067811865476 -0.7071067811865476
vn 3.6808572829177127e-16 0.45399049973954636 -0.8910065241883681
vn 3.500703304471364e-16 0.1564344650402314 -0.9876883405951377
vn 3.6808572829177127e-16 -0.15643446504023106 -0.9876883405951378
vn 4.327107253384749e-16 -0.4539904997395468 -0.891006524188368
vn 4.764601753198755e-16 -0.7071067811865474 -0.7071067811865477
vn 2.265702772465495e-16 -0.8910065241883679 -0.4539904997395469
vn 8.87131093793523e-17 -0.9876883405951378 -0.15643446504023095
vn -0.04834090820338498 0.9876883405951379 -0.14877801734965812
vn -0.14029077970429493 0.8910065241883681 -0.4317706231133891
vn -0.21850801222441016 0.7071067811865476 -0.6724985119639575
vn -0.2753361580731582 0.45399049973954636 -0.8473975608908428
vn -0.30521248238988885 0.15643446504023134 -0.9393474323917529
vn -0.30521248238988863 -0.156434465040231 -0.9393474323917529
vn -0.2753361580731579 -0.45399049973954675 -0.8473975608908428
vn -0.21850801222441033 -0.7071067811865472 -0.6724985119639576
vn -0.14029077970429513 -0.891006524188368 -0.4317706231133894
vn -0.048340908203384936 -0.9876883405951379 -0.14877801734965806
vn -0.09194987150091018 0.9876883405951378 -0.12655814072350055
vn -0.26684892042779507 0.8910065241883681 -0.3672860295740684
vn -0.4156269377774533 0.7071067811865476 -0.5720614028176846
vn -0.523720494614299 0.4539904997395462 -0.7208394201673428
vn -0.5805486404630464 0.1564344650402312 -0.7990566526874583
vn -0.5805486404630466 -0.1564344650402308 -0.7990566526874582
vn -0.5237204946142993 -0.4539904997395465 -0.7208394201673426
vn -0.4156269377774534 -0.7071067811865474 -0.5720614028176846
vn -0.2668489204277952 -0.891006524188368 -0.36728602957406886
vn -0.09194987150091014 -0.9876883405951378 -0.1265581407235005
vn -0.1265581407235005 0.9876883405951378 -0.09194987150091023
vn -0.36728602957406836 0.891006524188368 -0.26684892042779534
vn -0.5720614028176845 0.7071067811865476 -0.41562693777745335
vn -0.7208394201673426 0.4539904997395463 -0.5237204946142995
vn -0.7990566526874578 0.15643446504023142 -0.5805486404630469
vn -0.7990566526874577 -0.15643446504023092 -0.5805486404630471
vn -0.7208394201673424 -0.4539904997395468 -0.5237204946142994
vn -0.5720614028176845 -0.7071067811865475 -0.4156269377774537
vn -0.36728602957406864 -0.891006524188368 -0.26684892042779546
vn -0.12655814072350044 -0.9876883405951378 -0.09194987150091022
vn -0.14877801734965815 0.9876883405951379 -0.048340908203385
vn -0.43177062311338904 0.891006524188368 -0.14029077970429496
vn -0.6724985119639574 0.7071067811865476 -0.21850801222441057
vn -0.847397560890843 0.4539904997395463 -0.27533615807315853
vn -0.9393474323917528 0.15643446504023117 -0.3052124823898892
vn -0.9393474323917528 -0.15643446504023079 -0.30521248238988896
vn -0.8473975608908427 -0.4539904997395466 -0.27533615807315837
vn -0.6724985119639576 -0.7071067811865472 -0.21850801222441052
vn -0.4317706231133895 -0.8910065241883679 -0.14029077970429515
vn -0.14877801734965806 -0.9876883405951378 -0.04834090820338495
vn -0.15643446504023104 0.9876883405951379 -8.871310937935239e-17
vn -0.4539904997395465 0.891006524188368 -2.3823008765993776e-16
vn -0.7071067811865476 0.7071067811865476 -3.461685802707799e-16
vn -0.8910065241883681 0.45399049973954636 -3.680857282917713e-16
vn -0.9876883405951377 0.1564344650402314 -3.500703304471364e-16
vn -0.9876883405951378 -0.15643446504023106 -3.6808572829177127e-16
vn -0.891006524188368 -0.4539904997395467 -4.327107253384749e-16
vn -0.7071067811865477 -0.7071067811865474 -4.764601753198755e-16
vn -0.4539904997395469 -0.891006524188368 -2.2657027724654944e-16
vn -0.15643446504023098 -0.9876883405951378 -8.87131093793523e-17
vn -0.14877801734965815 0.9876883405951379 0.04834090820338498
vn -0.4317706231133891 0.8910065241883681 0.14029077970429493
vn -0.6724985119639574 0.7071067811865476 0.21850801222441046
vn -0.8473975608908428 0.4539904997395463 0.27533615807315837
vn -0.9393474323917527 0.1564344650402313 0.305212482389889
vn -0.9393474323917528 -0.156434465040231 0.30521248238988885
vn -0.8473975608908428 -0.4539904997395467 0.2753361580731582
vn -0.6724985119639575 -0.7071067811865474 0.2185080122244108
vn -0.43177062311338926 -0.8910065241883678 0.14029077970429532
vn -0.14877801734965804 -0.9876883405951378 0.04834090820338502
vn -0.12655814072350052 0.9876883405951379 0.09194987150091025
vn -0.36728602957406825 0.891006524188368 0.26684892042779534
vn -0.5720614028176844 0.7071067811865476 0.4156269377774534
vn -0.7208394201673426 0.45399049973954625 0.5237204946142994
vn -0.7990566526874582 0.1564344650402312 0.5805486404630468
vn -0.799056652687458 -0.1564344650402308 0.5805486404630469
vn -0.7208394201673425 -0.4539904997395467 0.5237204946142994
vn -0.5720614028176846 -0.7071067811865475 0.4156269377774532
vn -0.3672860295740688 -0.8910065241883678 0.2668489204277953
vn -0.12655814072350055 -0.9876883405951379 0.09194987150091018
vn -0.09194987150091032 0.9876883405951379 0.1265581407235005
vn -0.26684892042779557 0.8910065241883681 0.36728602957406825
vn -0.41562693777745363 0.7071067811865476 0.5720614028176843
vn -0.5237204946142997 0.4539904997395463 0.7208394201673424
vn -0.5805486404630472 0.15643446504023142 0.7990566526874576
vn -0.5805486404630473 -0.15643446504023095 0.7990566526874576
vn -0.5237204946142996 -0.4539904997395467 0.7208394201673421
vn -0.41562693777745385 -0.7071067811865474 0.5720614028176841
vn -0.26684892042779546 -0.8910065241883679 0.36728602957406853
vn -0.09194987150091025 -0.9876883405951378 0.12655814072350044
vn -0.048340908203385 0.9876883405951379 0.14877801734965815
vn -0.14029077970429496 0.891006524188368 0.43177062311338904
vn -0.21850801222441057 0.7071067811865475 0.6724985119639574
vn -0.2753361580731586 0.4539904997395464 0.847397560890843
vn -0.3052124823898892 0.15643446504023117 0.9393474323917527
vn -0.30521248238988896 -0.15643446504023079 0.9393474323917528
vn -0.27533615807315837 -0.4539904997395466 0.8473975608908427
vn -0.21850801222441052 -0.7071067811865472 0.6724985119639576
vn -0.14029077970429518 -0.8910065241883679 0.4317706231133892
vn -0.04834090820338498 -0.9876883405951379 0.14877801734965806
vn -8.871310937935229e-17 0.9876883405951378 0.15643446504023104
vn -2.382300876599376e-16 0.891006524188368 0.45399049973954664
vn -3.4616858027077953e-16 0.7071067811865476 0.7071067811865476
vn -3.6808572829177102e-16 0.45399049973954647 0.8910065241883682
vn -3.5007033044713605e-16 0.15643446504023137 0.9876883405951377
vn -3.6808572829177083e-16 -0.15643446504023104 0.9876883405951378
vn -4.3271072533847453e-16 -0.45399049973954664 0.8910065241883679
vn -4.764601753198751e-16 -0.7071067811865475 0.7071067811865476
vn -2.2657027724654925e-16 -0.8910065241883677 0.4539904997395469
vn -8.871310937935223e-17 -0.9876883405951378 0.15643446504023098
usemtl m_292ba60c-bf6c-b3fe-9cad-deddbd057ab2
f 3/1/1 12/2/1 2/3/1
f 3/4/2 4/5/2 13/6/2 12/7/2
f 4/8/3 5/9/3 14/10/3 13/11/3
f 5/12/4 6/13/4 15/14/4 14/15/4
f 6/16/5 7/17/5 16/18/5 15/19/5
f 7/20/6 8/21/6 17/22/6 16/23/6
f 8/24/7 9/25/7 18/26/7 17/27/7
f 9/28/8 10/29/8 19/30/8 18/31/8
f 10/32/9 11/33/9 20/34/9 19/35/9
f 20/36/10 11/37/10 1/38/10
f 12/39/11 21/40/11 2/41/11
f 12/42/12 13/43/12 22/44/12 21/45/12
f 13/46/13 14/47/13 23/48/13 22/49/13
f 14/50/14 15/51/14 24/52/14 23/53/14
f 15/54/15 16/55/15 25/56/15 24/57/15
f 16/58/16 17/59/16 26/60/16 25/61/16
f 17/62/17 18/63/17 27/64/17 26/65/17
f 18/66/18 19/67/18 28/68/18 27/69/18
f 19/70/19 20/71/19 29/72/19 28/73/19
f 29/74/20 20/75/20 1/76/20
f 21/77/21 30/78/21 2/79/21
f 21/80/22 22/81/22 31/82/22 30/83/22
f 22/84/23 23/85/23 32/86/23 31/87/23
f 23/88/24 24/89/24 33/90/24 32/91/24
f 24/92/25 25/93/25 34/94/25 33/95/25
f 25/96/26 26/97/26 35/98/26 34/99/26
f 26/100/27 27/101/27 36/102/27 35/103/27
f 27/104/28 28/105/28 37/106/28 36/107/28
f 28/108/29 29/109/29 38/110/29 37/111/29
f 38/112/30 29/113/30 1/114/30
f 30/115/31 39/116/31 2/117/31
f 30/118/32 31/119/32 40/120/32 39/121/32
f 31/122/33 32/123/33 41/124/33 40/125/33
f 32/126/34 33/127/34 42/128/34 41/129/34
f 33/130/35 34/131/35 43/132/35 42/133/35
f 34/134/36 35/135/36 44/136/36 43/137/36
f 35/138/37 36/139/37 45/140/37 44/141/37
f 36/142/38 37/143/38 46/144/38 45/145/38
f 37/146/39 38/147/39 47/148/39 46/149/39
f 47/150/40 38/151/40 1/152/40
f 39/153/41 48/154/41 2/155/41
f 39/156/42 40/157/42 49/158/42 48/159/42
f 40/160/43 41/161/43 50/162/43 49/163/43
f 41/164/44 42/165/44 51/166/44 50/167/44
f 42/168/45 43/169/45 52/170/45 51/171/45
f 43/172/46 44/173/46 53/174/46 52/175/46
f 44/176/47 45/177/47 54/178/47 53/179/47
f 45/180/48 46/181/48 55/182/48 54/183/48
f 46/184/49 47/185/49 56/186/49 55/187/49
f 56/188/50 47/189/50 1/190/50
f 48/191/51 57/192/51 2/193/51
f 48/194/52 49/195/52 58/196/52 57/197/52
f 49/198/53 50/199/53 59/200/53 58/201/53
f 50/202/54 51/203/54 60/204/54 59/205/54
f 51/206/55 52/207/55 61/208/55 60/209/55
f 52/210/56 53/211/56 62/212/56 61/213/56
f 53/214/57 54/215/57 63/216/57 62/217/57
f 54/218/58 55/219/58 64/220/58 63/221/58
f 55/222/59 56/223/59 65/224/59 64/225/59
f 65/226/60 56/227/60 1/228/60
f 57/229/61 66/230/61 2/231/61
f 57/232/62 58/233/62 67/234/62 66/235/62
f 58/236/63 59/237/63 68/238/63 67/239/63
f 59/240/64 60/241/64 69/242/64 68/243/64
f 60/244/65 61/245/65 70/246/65 69/247/65
f 61/248/66 62/249/66 71/250/66 70/251/66
f 62/252/67 63/253/67 72/254/67 71/255/67
f 63/256/68 64/257/68 73/258/68 72/259/68
f 64/260/69 65/261/69 74/262/69 73/263/69
f 74/264/70 65/265/70 1/266/70
f 66/267/71 75/268/71 2/269/71
f 66/270/72 67/271/72 76/272/72 75/273/72
f 67/274/73 68/275/73 77/276/73 76/277/73
f 68/278/74 69/279/74 78/280/74 77/281/74
f 69/282/75 70/283/75 79/284/75 78/285/75
f 70/286/76 71/287/76 80/288/76 79/289/76
f 71/290/77 72/291/77 81/292/77 80/293/77
f 72/294/78 73/295/78 82/296/78 81/297/78
f 73/298/79 74/299/79 83/300/79 82/301/79
f 83/302/80 74/303/80 1/304/80
f 75/305/81 84/306/81 2/307/81
f 75/308/82 76/309/82 85/310/82 84/311/82
f 76/312/83 77/313/83 86/314/83 85/315/83
f 77/316/84 78/317/84 87/318/84 86/319/84
f 78/320/85 79/321/85 88/322/85 87/323/85
f 79/324/86 80/325/86 89/326/86 88/327/86
f 80/328/87 81/329/87 90/330/87 89/331/87
f 81/332/88 82/333/88 91/334/88 90/335/88
f 82/336/89 83/337/89 92/338/89 91/339/89
f 92/340/90 83/341/90 1/342/90
f 84/343/91 93/344/91 2/345/91
f 84/346/92 85/347/92 94/348/92 93/349/92
f 85/350/93 86/351/93 95/352/93 94/353/93
f 86/354/94 87/355/94 96/356/94 95/357/94
f 87/358/95 88/359/95 97/360/95 96/361/95
f 88/362/96 89/363/96 98/364/96 97/365/96
f 89/366/97 90/367/97 99/368/97 98/369/97
f 90/370/98 91/371/98 100/372/98 99/373/98
f 91/374/99 92/375/99 101/376/99 100/377/99
f 101/378/100 92/379/100 1/380/100
f 93/381/101 102/382/101 2/383/101
f 93/384/102 94/385/102 103/386/102 102/387/102
f 94/388/103 95/389/103 104/390/103 103/391/103
f 95/392/104 96/393/104 105/394/104 104/395/104
f 96/396/105 97/397/105 106/398/105 105/399/105
f 97/400/106 98/401/106 107/402/106 106/403/106
f 98/404/107 99/405/107 108/406/107 107/407/107
f 99/408/108 100/409/108 109/410/108 108/411/108
f 100/412/109 101/413/109 110/414/109 109/415/109
f 110/416/110 101/417/110 1/418/110
f 102/419/111 111/420/111 2/421/111
f 102/422/112 103/423/112 112/424/112 111/425/112
f 103/426/113 104/427/113 113/428/113 112/429/113
f 104/430/114 105/431/114 114/432/114 113/433/114
f 105/434/115 106/435/115 115/436/115 114/437/115
f 106/438/116 107/439/116 116/440/116 115/441/116
f 107/442/117 108/443/117 117/444/117 116/445/117
f 108/446/118 109/447/118 118/448/118 117/449/118
f 109/450/119 110/451/119 119/452/119 118/453/119
f 119/454/120 110/455/120 1/456/120
f 111/457/121 120/458/121 2/459/121
f 111/460/122 112/461/122 121/462/122 120/463/122
f 112/464/123 113/465/123 122/466/123 121/467/123
f 113/468/124 114/469/124 123/470/124 122/471/124
f 114/472/125 115/473/125 124/474/125 123/475/125
f 115/476/126 116/477/126 125/478/126 124/479/126
f 116/480/127 117/481/127 126/482/127 125/483/127
f 117/484/128 118/485/128 127/486/128 126/487/128
f 118/488/129 119/489/129 128/490/129 127/491/129
f 128/492/130 119/493/130 1/494/130
f 120/495/131 129/496/131 2/497/131
f 120/498/132 121/499/132 130/500/132 129/501/132
f 121/502/133 122/503/133 131/504/133 130/505/133
f 122/506/134 123/507/134 132/508/134 131/509/134
f 123/510/135 124/511/135 133/512/135 132/513/135
f 124/514/136 125/515/136 134/516/136 133/517/136
f 125/518/137 126/519/137 135/520/137 134/521/137
f 126/522/138 127/523/138 136/524/138 135/525/138
f 127/526/139 128/527/139 137/528/139 136/529/139
f 137/530/140 128/531/140 1/532/140
f 129/533/141 138/534/141 2/535/141
f 129/536/142 130/537/142 139/538/142 138/539/142
f 130/540/143 131/541/143 140/542/143 139/543/143
f 131/544/144 132/545/144 141/546/144 140/547/144
f 132/548/145 133/549/145 142/550/145 141/551/145
f 133/552/146 134/553/146 143/554/146 142/555/146
f 134/556/147 135/557/147 144/558/147 143/559/147
f 135/560/148 136/561/148 145/562/148 144/563/148
f 136/564/149 137/565/149 146/566/149 145/567/149
f 146/568/150 137/569/150 1/570/150
f 138/571/151 147/572/151 2/573/151
f 138/574/152 139/575/152 148/576/152 147/577/152
f 139/578/153 140/579/153 149/580/153 148/581/153
f 140/582/154 141/583/154 150/584/154 149/585/154
f 141/586/155 142/587/155 151/588/155 150/589/155
f 142/590/156 143/591/156 152/592/156 151/593/156
f 143/594/157 144/595/157 153/596/157 152/597/157
f 144/598/158 145/599/158 154/600/158 153/601/158
f 145/602/159 146/603/159 155/604/159 154/605/159
f 155/606/160 146/607/160 1/608/160
f 147/609/161 156/610/161 2/611/161
f 147/612/162 148/613/162 157/614/162 156/615/162
f 148/616/163 149/617/163 158/618/163 157/619/163
f 149/620/164 150/621/164 159/622/164 158/623/164
f 150/624/165 151/625/165 160/626/165 159/627/165
f 151/628/166 152/629/166 161/630/166 160/631/166
f 152/632/167 153/633/167 162/634/167 161/635/167
f 153/636/168 154/637/168 163/638/168 162/639/168
f 154/640/169 155/641/169 164/642/169 163/643/169
f 164/644/170 155/645/170 1/646/170
f 156/647/171 165/648/171 2/649/171
f 156/650/172 157/651/172 166/652/172 165/653/172
f 157/654/173 158/655/173 167/656/173 166/657/173
f 158/658/174 159/659/174 168/660/174 167/661/174
f 159/662/175 160/663/175 169/664/175 168/665/175
f 160/666/176 161/667/176 170/668/176 169/669/176
f 161/670/177 162/671/177 171/672/177 170/673/177
f 162/674/178 163/675/178 172/676/178 171/677/178
f 163/678/179 164/679/179 173/680/179 172/681/179
f 173/682/180 164/683/180 1/684/180
f 165/685/181 174/686/181 2/687/181
f 165/688/182 166/689/182 175/690/182 174/691/182
f 166/692/183 167/693/183 176/694/183 175/695/183
f 167/696/184 168/697/184 177/698/184 176/699/184
f 168/700/185 169/701/185 178/702/185 177/703/185
f 169/704/186 170/705/186 179/706/186 178/707/186
f 170/708/187 171/709/187 180/710/187 179/711/187
f 171/712/188 172/713/188 181/714/188 180/715/188
f 172/716/189 173/717/189 182/718/189 181/719/189
f 182/720/190 173/721/190 1/722/190
f 174/723/191 3/724/191 2/725/191
f 174/726/192 175/727/192 4/728/192 3/729/192
f 175/730/193 176/731/193 5/732/193 4/733/193
f 176/734/194 177/735/194 6/736/194 5/737/194
f 177/738/195 178/739/195 7/740/195 6/741/195
f 178/742/196 179/743/196 8/744/196 7/745/196
f 179/746/197 180/747/197 9/748/197 8/749/197
f 180/750/198 181/751/198 10/752/198 9/753/198
f 181/754/199 182/755/199 11/756/199 10/757/199
f 11/758/200 182/759/200 1/760/200